#define monocircle_width 64
#define monocircle_height 64
static unsigned char monocircle_bits[] = {
   0x00, 0x00, 0x00, 0x00, 0x00, 0x00, 0x00, 0x00, 0x00, 0x00, 0x00, 0x00,
   0x00, 0x00, 0x00, 0x00, 0x00, 0x00, 0x00, 0x00, 0x00, 0x00, 0x00, 0x00,
   0x00, 0x00, 0x00, 0x00, 0x00, 0x00, 0x00, 0x00, 0x00, 0x00, 0x00, 0x00,
   0x00, 0x00, 0x00, 0x00, 0x00, 0x00, 0x00, 0x00, 0x00, 0x00, 0x00, 0x00,
   0x00, 0x00, 0x00, 0x00, 0x00, 0x00, 0x00, 0x00, 0x00, 0x00, 0x00, 0x00,
   0x00, 0x00, 0x00, 0x00, 0x00, 0x00, 0x00, 0x00, 0x00, 0x00, 0x00, 0x00,
   0x00, 0x00, 0x00, 0x00, 0x00, 0x00, 0x00, 0x00, 0x00, 0x00, 0x00, 0x00,
   0x00, 0x00, 0x00, 0x00, 0x00, 0x00, 0x00, 0x00, 0x00, 0x00, 0x00, 0x00,
   0x00, 0x00, 0x00, 0x00, 0x00, 0x00, 0x00, 0x00, 0x00, 0x00, 0x00, 0x00,
   0x00, 0x00, 0x00, 0x00, 0x00, 0x00, 0x00, 0xf0, 0x0f, 0x00, 0x00, 0x00,
   0x00, 0x00, 0x00, 0xfc, 0x7f, 0x00, 0x00, 0x00, 0x00, 0x00, 0x00, 0xff,
   0xff, 0x01, 0x00, 0x00, 0x00, 0x00, 0xc0, 0x1f, 0xf0, 0x07, 0x00, 0x00,
   0x00, 0x00, 0xe0, 0x07, 0x80, 0x0f, 0x00, 0x00, 0x00, 0x00, 0xf0, 0x01,
   0x00, 0x1e, 0x00, 0x00, 0x00, 0x00, 0xf8, 0x00, 0x00, 0x3c, 0x00, 0x00,
   0x00, 0x00, 0x78, 0x00, 0x00, 0x38, 0x00, 0x00, 0x00, 0x00, 0x3c, 0x00,
   0x00, 0x70, 0x00, 0x00, 0x00, 0x00, 0x1c, 0x00, 0x00, 0x70, 0x00, 0x00,
   0x00, 0x00, 0x0e, 0x00, 0x00, 0xe0, 0x00, 0x00, 0x00, 0x00, 0x0e, 0x00,
   0x00, 0xe0, 0x00, 0x00, 0x00, 0x00, 0x0f, 0x00, 0x00, 0xe0, 0x01, 0x00,
   0x00, 0x00, 0x07, 0x00, 0x00, 0xc0, 0x01, 0x00, 0x00, 0x00, 0x07, 0x00,
   0x00, 0xc0, 0x01, 0x00, 0x00, 0x00, 0x07, 0x00, 0x00, 0xc0, 0x01, 0x00,
   0x00, 0x00, 0x07, 0x00, 0x00, 0xc0, 0x01, 0x00, 0x00, 0x00, 0x07, 0x00,
   0x00, 0xc0, 0x01, 0x00, 0x00, 0x00, 0x07, 0x00, 0x00, 0xe0, 0x01, 0x00,
   0x00, 0x00, 0x07, 0x00, 0x00, 0xc0, 0x01, 0x00, 0x00, 0x00, 0x0e, 0x00,
   0x00, 0xe0, 0x00, 0x00, 0x00, 0x00, 0x0e, 0x00, 0x00, 0xe0, 0x00, 0x00,
   0x00, 0x00, 0x0e, 0x00, 0x00, 0xf0, 0x00, 0x00, 0x00, 0x00, 0x1c, 0x00,
   0x00, 0x70, 0x00, 0x00, 0x00, 0x00, 0x3c, 0x00, 0x00, 0x78, 0x00, 0x00,
   0x00, 0x00, 0x38, 0x00, 0x00, 0x38, 0x00, 0x00, 0x00, 0x00, 0xf8, 0x00,
   0x00, 0x3c, 0x00, 0x00, 0x00, 0x00, 0xf0, 0x01, 0x00, 0x1f, 0x00, 0x00,
   0x00, 0x00, 0xe0, 0x03, 0x80, 0x0f, 0x00, 0x00, 0x00, 0x00, 0x80, 0x1f,
   0xf0, 0x03, 0x00, 0x00, 0x00, 0x00, 0x00, 0xff, 0xff, 0x01, 0x00, 0x00,
   0x00, 0x00, 0x00, 0xfc, 0xff, 0x00, 0x00, 0x00, 0x00, 0x00, 0x00, 0xf0,
   0x0f, 0x00, 0x00, 0x00, 0x00, 0x00, 0x00, 0x00, 0x00, 0x00, 0x00, 0x00,
   0x00, 0x00, 0x00, 0x00, 0x00, 0x00, 0x00, 0x00, 0x00, 0x00, 0x00, 0x00,
   0x00, 0x00, 0x00, 0x00, 0x00, 0x00, 0x00, 0x00, 0x00, 0x00, 0x00, 0x00,
   0x00, 0x00, 0x00, 0x00, 0x00, 0x00, 0x00, 0x00, 0x00, 0x00, 0x00, 0x00,
   0x00, 0x00, 0x00, 0x00, 0x00, 0x00, 0x00, 0x00, 0x00, 0x00, 0x00, 0x00,
   0x00, 0x00, 0x00, 0x00, 0x00, 0x00, 0x00, 0x00, 0x00, 0x00, 0x00, 0x00,
   0x00, 0x00, 0x00, 0x00, 0x00, 0x00, 0x00, 0x00, 0x00, 0x00, 0x00, 0x00,
   0x00, 0x00, 0x00, 0x00, 0x00, 0x00, 0x00, 0x00, 0x00, 0x00, 0x00, 0x00,
   0x00, 0x00, 0x00, 0x00, 0x00, 0x00, 0x00, 0x00, 0x00, 0x00, 0x00, 0x00,
   0x00, 0x00, 0x00, 0x00, 0x00, 0x00, 0x00, 0x00, 0x00, 0x00, 0x00, 0x00,
   0x00, 0x00, 0x00, 0x00, 0x00, 0x00, 0x00, 0x00, 0x00, 0x00, 0x00, 0x00,
   0x00, 0x00, 0x00, 0x00, 0x00, 0x00, 0x00, 0x00 };
